<svg viewBox="0 0 100 32" version="1.1" xmlns="http://www.w3.org/2000/svg" preserveAspectRatio="none" class="SparkLine__Svg-sc-9wg5ja-0 cdfFYq"><path d="M 0,9.495157006550084 C 9.594220041694556e-18,9.338471502641946 2.9892970456333064e-18,8.760548412559432 0,8.711729487009395 C 2.9892970456333064e-18,8.662910561459357 -0.20000000000000004,9.172022213623686 0,9.251062378799897 C 0.20000000000000004,9.330102543976109 0.8,8.938376548886163 1,9.10693031289045 C 1.2,9.275484076894736 1,9.922756958961603 1,10.09383119882133 C 1,10.264905438681058 0.7999999999999999,9.904379508792157 1,9.962301512189086 C 1.2,10.020223515586014 1.8,10.235540671432915 2,10.383441215805977 C 2.2,10.53134176017904 2,10.554955927174385 2,10.7018042340544 C 2,10.848652540934415 1.8,11.139804208199651 2,11.117682750206056 C 2.2,11.09556129221246 2.8,10.432431435831544 3,10.59119694408642 C 3.2,10.749962452341295 3,11.610105426317775 3,11.911510291480436 C 3,12.212915156643097 2.8,12.084835830162476 3,12.098221269899728 C 3.2,12.11160670963698 3.8,12.019572634953443 4,11.978437490166701 C 4.2,11.93730234537996 4,12.117871193316661 4,11.892545545966023 C 4,11.667219898615384 3.8,10.846132065078866 4,10.851809253413512 C 4.2,10.857486441748158 4.8,11.948387545016256 5,11.920931487639253 C 5.2,11.89347543026225 5,11.065804994734236 5,10.71452896652849 C 5,10.363252938322745 4.8,10.255435301243466 5,10.164551346610526 C 5.2,10.073667391977587 5.8,10.291431611761816 6,10.260109193363796 C 6.2,10.228786774965776 6,9.9605151555147 6,10.007939254620432 C 6,10.055363353726163 5.8,10.38640216317014 6,10.497229688892451 C 6.2,10.608057214614762 6.8,10.943378385948927 7,10.562076883231981 C 7.2,10.180775380515035 7,9.01944777713038 7,8.590722175307725 C 7,8.161996573485071 6.8,8.489095609989837 7,8.41844887411871 C 7.2,8.347802138247582 7.8,8.2926697877392 8,8.237488495952086 C 8.2,8.182307204164971 7.8,8.28368906308913 8,8.142542415183136 C 8.2,8.001395767277144 8.8,7.247235132427134 9,7.53175525642212 C 9.2,7.816275380417107 9,9.496967833863671 9,9.56514303515807 C 9,9.633318236452467 8.8,8.339751297893692 9,7.872631262894111 C 9.2,7.40551122789453 9.8,7.524169358216378 10,7.229542860160164 C 10.2,6.93491636210395 10,6.541624246093991 10,6.39949877261304 C 10,6.257373299132088 9.8,6.68754266867778 10,6.518915492755406 C 10.2,6.350288316833032 10.8,5.606111702847364 11,5.556362893001166 C 11.2,5.506614083154969 11,5.964949158619519 11,6.2701714435244185 C 11,6.575393728429318 10.8,6.895640985909462 11,7.082474317525664 C 11.2,7.269307649141866 11.8,7.028027144919779 12,7.204338101605428 C 12.2,7.380649058291077 12,7.910193694332343 12,7.964029100953907 C 12,8.017864507575469 11.8,7.303493132346585 12,7.473515134713243 C 12.2,7.643537137079902 12.8,8.689216498785784 13,8.8141391127872 C 13.2,8.939061726788617 13,8.065729078189882 13,8.098128204720325 C 13,8.130527331250768 12.8,8.93372712740523 13,8.976134745439413 C 13.2,9.018542363473596 13.8,8.394296353057129 14,8.31016629489124 C 14.2,8.22603623672535 14,8.48843490272674 14,8.55548445460996 C 14,8.622534006493181 13.8,8.899125643331164 14,8.64541405430734 C 14.2,8.391702465283515 14.8,7.529161368648527 15,7.286926509490836 C 15.2,7.044691650333146 15,7.497178242987387 15,7.434239758518888 C 15,7.371301274050389 14.8,7.0302295024633805 15,6.972234087148342 C 15.2,6.914238671833304 15.8,7.182094290415033 16,7.144262681943695 C 16.2,7.106431073472357 15.8,6.8429312286990776 16,6.7830760447916525 C 16.2,6.723220860884227 16.8,6.933497065020287 17,6.8449867624065694 C 17.2,6.756476459792852 17,6.503719225704543 17,6.340524531723064 C 17,6.177329837741585 16.8,6.068190786136064 17,6.029013292499174 C 17.2,5.989835798862284 17.8,6.316127304267689 18,6.144637063538615 C 18.2,5.97314682280954 18,4.961701885587176 18,5.1715620888538005 C 18,5.381422292120425 17.8,7.0292262062491115 18,7.193938079871739 C 18.2,7.358649953494366 18.8,5.9720945853165155 19,5.995121456966938 C 19.2,6.018148328617361 19,7.0778248960448416 19,7.309072438123854 C 19,7.540319980202867 18.8,7.257341506488384 19,7.151359167362003 C 19.2,7.0453768282356215 19.8,7.035050218420022 20,6.77916074249195 C 20.2,6.523271266563878 20,5.966515279539356 20,5.871911787721645 C 20,5.777308295903934 19.8,6.473767163111453 20,6.306143283403392 C 20.2,6.138519403695331 20.8,5.357025064665139 21,5.033792389181342 C 21.2,4.7105597136975454 21,4.495242557850582 21,4.689979905984409 C 21,4.884717254118237 20.8,4.676542987505549 21,6.007479129850479 C 21.2,7.338415272195409 21.8,9.970570879992348 22,11.34466061770906 C 22.2,12.718750355425772 22,12.069793693375313 22,12.877927818434044 C 22,13.686061943492774 21.8,14.832794062899179 22,15.385331243002708 C 22.2,15.937868423106238 22.8,14.918584520087718 23,15.640613718951686 C 23.2,16.362642917815652 23,18.454161798787865 23,18.995477237322547 C 23,19.536792675857228 22.8,18.78763212345986 23,18.347190911625095 C 23.2,17.90674969979033 23.8,17.1056582307824 24,16.793271178148707 C 24.2,16.480884125515015 23.8,16.752051923944542 24,16.78525564845664 C 24.2,16.81845937296874 24.8,17.03436859549117 25,16.959289800709204 C 25.2,16.884211005927238 25,16.74415784167203 25,16.409861674546814 C 25,16.075565507421597 24.8,15.356159572820546 25,15.287808965083116 C 25.2,15.219458357345685 25.8,16.11535168207478 26,16.06810863585966 C 26.2,16.020865589644536 26,15.068086293585948 26,15.051593734007508 C 26,15.035101174429068 25.8,15.616518550907792 26,15.985645837967459 C 26.2,16.354773125027126 26.8,16.695433136938167 27,16.897230169305846 C 27.2,17.099027201673525 27,16.972697595830418 27,16.99463099980586 C 27,17.016564403781302 26.8,17.185643501315198 27,17.00689718918306 C 27.2,16.828150877050923 27.8,16.392373246127878 28,16.10089943914517 C 28.2,15.809425632162464 28,15.53760201766715 28,15.54952815426953 C 28,15.56145429087191 27.8,16.023950354101743 28,16.16053012215707 C 28.2,16.297109890212397 28.8,16.186932791172953 29,16.232426994546167 C 29.2,16.27792119791938 29,16.214501355416704 29,16.388001139023142 C 29,16.56150092262958 28.8,17.005731293955126 29,17.09992591257836 C 29.2,17.194120531201595 29.8,17.06725655671234 30,16.858974232139307 C 30.2,16.650691907566273 30,16.16898286255962 30,16.058514289713187 C 30,15.948045716866755 29.8,16.413747991973278 30,16.306631367907144 C 30.2,16.19951474384101 30.8,15.552637208210845 31,15.522931169382517 C 31.2,15.493225130554189 31,16.51675969325773 31,16.158101173765502 C 31,15.799442654273273 30.8,14.300028522702599 31,13.729638571921374 C 31.2,13.159248621140149 31.8,13.900077880554438 32,13.306151419859379 C 32.2,12.71222495916432 32,11.025611775059048 32,10.76000626844608 C 32,10.494400761833113 31.8,12.098113937335746 32,11.978123886794544 C 32.2,11.85813383625334 32.8,10.640817770874094 33,10.160056015740064 C 33.2,9.679294260606035 32.8,9.97431433224032 33,9.574315111124394 C 33.2,9.174315890008467 33.8,8.389498375223647 34,8.160059910160427 C 34.2,7.9306214450972075 34,8.405893776866382 34,8.427122785808292 C 34,8.448351794750202 33.8,8.500234132393153 34,8.266204954869979 C 34.2,8.032175777346804 34.8,7.37410078963164 35,7.256976898192422 C 35.2,7.139853006753203 35,7.131011634608005 35,7.680585497673886 C 35,8.230159360739767 34.8,10.100303885308653 35,10.004846213521827 C 35.2,9.909388541735 35.8,7.98651154758618 36,7.203297138739754 C 36.2,6.420082729893328 36,6.729433597037645 36,6.088774169289694 C 36,5.448114741541743 35.8,4.043283860336931 36,4 C 36.2,3.956716139663069 36.8,5.542868018295016 37,5.872354867605038 C 37.2,6.201841716915061 37,5.551199311277984 37,5.647434246550112 C 37,5.7436691818222405 36.8,6.329288639018312 37,6.353529543965679 C 37.2,6.377770448913045 37.8,6.08073435011367 38,5.768638771286946 C 38.2,5.456543192460221 38,4.454820586312543 38,4.793051649832058 C 38,5.131282713351572 37.8,6.79632683574018 38,7.459794088884516 C 38.2,8.123261342028853 38.8,8.032467251153705 39,8.110387915553739 C 39.2,8.188308579953773 39,7.797393625822179 39,7.849397410884686 C 39,7.901401195947193 38.8,7.8021057857017535 39,8.370406840866274 C 39.2,8.938707896030794 39.8,10.36114865307419 40,10.690902686707286 C 40.2,11.020656720340382 40,9.785997963445602 40,10.01917700903175 C 40,10.252356054617898 39.8,11.315943976297717 40,11.856797914638022 C 40.2,12.397651852978328 40.8,12.506857372661232 41,12.723446700733277 C 41.2,12.940036028805322 40.8,13.239209602189057 41,12.939744554998246 C 41.2,12.640279507807435 41.8,11.258547925806038 42,11.226121464779219 C 42.2,11.1936950037524 42,12.425681917416453 42,12.777612249864148 C 42,13.129542582311844 41.8,13.117616445709528 42,12.985773127017692 C 42.2,12.853929808325857 42.8,12.077783639298717 43,12.118395656404967 C 43.2,12.159007673511217 43,13.090145039401374 43,13.188833212548943 C 43,13.287521385696511 42.8,12.256384214527426 43,12.611836522142807 C 43.2,12.96728882975819 43.8,14.571220610616063 44,14.966094750625848 C 44.2,15.360968890635633 44,14.300708628252172 44,14.58620722219173 C 44,14.871705816131287 43.8,16.03733385973904 44,16.393587720323637 C 44.2,16.749841580908235 44.8,16.73959141869595 45,16.36747652511472 C 45.2,15.995361631533491 45,14.765245008130922 45,14.533013252417486 C 45,14.300781496704051 44.8,15.035514095655678 45,15.206317746547542 C 45.2,15.377121397439407 45.8,15.67287015359116 46,15.387031506876806 C 46.2,15.10119286016245 46,13.701802823354663 46,13.777124512975764 C 46,13.852446202596864 45.8,15.426866260497755 46,15.763639954982306 C 46.2,16.10041364946686 46.8,15.483946547698421 47,15.46099298539852 C 47.2,15.438039423098617 47,15.786787833153422 47,15.648872143482798 C 47,15.510956453812174 46.8,15.022227747953975 47,14.771414537045395 C 47.2,14.520601326136815 47.8,14.292085861462413 48,14.394806088939896 C 48.2,14.49752631641738 48,14.938064686187765 48,15.285015674432811 C 48,15.631966662677858 47.8,16.06116184345984 48,16.129561030165124 C 48.2,16.19796021687041 48.8,15.833253615883397 49,15.627011607959234 C 49.2,15.420769600035072 48.8,15.0481932062594 49,15.098350990544315 C 49.2,15.14850877482923 49.8,15.622882395693525 50,15.877800529383812 C 50.2,16.132718663074098 50,15.793686046585478 50,16.37294165899575 C 50,16.95219727140602 49.8,18.82547513939981 50,18.774078591435174 C 50.2,18.722682043470538 50.8,16.68430855330489 51,16.115958919172563 C 51.2,15.547609285040233 51,15.956425588817421 51,15.932330420773527 C 51,15.908235252729632 50.8,16.270294299969926 51,15.995483078953091 C 51.2,15.720671857936257 51.8,14.802383629037363 52,14.558274315689356 C 52.2,14.31416500234135 52,14.822786795526074 52,14.77493651221306 C 52,14.727086228900045 51.8,14.208117115567353 52,14.319022899124288 C 52.2,14.429928682681224 52.8,14.977607966001791 53,15.32946542999774 C 53.2,15.681322893993688 53,15.675129075595231 53,16.078310219104026 C 53,16.481491362612818 52.8,17.278745093162247 53,17.34537114754171 C 53.2,17.41199720192117 53.8,16.490162708370587 54,16.411440491001336 C 54.2,16.332718273632086 54,16.99735142200433 54,16.951760060695452 C 54,16.906168699386576 53.8,16.386203717213405 54,16.183483684456952 C 54.2,15.980763651700498 54.8,15.463932012952338 55,15.93815989691318 C 55.2,16.412387780874024 55,18.04170207242337 55,18.554623104261168 C 55,19.067544136098967 54.8,17.800556076113033 55,18.502765056102177 C 55.2,19.204974036091322 55.8,21.39437953724184 56,22.06566800420689 C 56.2,22.736956471171943 56,21.570769769434154 56,21.859207390927445 C 56,22.147645012420735 55.8,22.861925865915776 56,23.50785611167334 C 56.2,24.153786357430906 56.8,25.131486663986504 57,25.088858619715275 C 57.2,25.046230575444046 57,23.494836948294736 57,23.294715890317192 C 57,23.09459483233965 56.8,23.875866082472843 57,24.088253329827563 C 57.2,24.300640577182282 57.8,24.679556526259795 58,24.35665212709079 C 58.2,24.033747727921785 57.8,22.80479699974704 58,22.473731333982542 C 58.2,22.142665668218044 58.8,23.401030961414154 59,22.7013237982683 C 59.2,22.00161663512245 59,19.644662273924705 59,18.975195518253283 C 59,18.30572876258186 58.8,19.478060703750145 59,19.353990019911194 C 59.2,19.229919336072243 59.8,18.100919834208764 60,18.35484209905853 C 60.2,18.608764363908296 60,20.44667674332154 60,20.623601344160022 C 60,20.800525944998505 59.8,19.452289561316153 60,19.23946510325095 C 60.2,19.026640645185747 60.8,19.467154725472245 61,19.559479053834014 C 61.2,19.651803382195784 61,19.664603940219127 61,19.701086745059797 C 61,19.737569549900467 60.8,19.65024885522524 61,19.74189307803737 C 61.2,19.833537300849503 61.8,19.76394792943235 62,20.15930785912045 C 62.2,20.554667788808548 62,21.389891444720035 62,21.718692726477865 C 62,22.047494008235695 61.8,21.56083847151813 62,21.803314267909606 C 62.2,22.04579006430108 62.8,22.29158004584301 63,22.93107170843523 C 63.2,23.57056337102745 63,24.725524953990774 63,25.00077258087071 C 63,25.276020207750644 62.8,24.46317500535597 63,24.30730984283491 C 63.2,24.15144468031385 63.8,23.599783534735142 64,24.221446768265416 C 64.2,24.84311000179569 64,27.45937124310283 64,27.415626010486285 C 64,27.37188077786974 63.8,24.983940017737318 64,24.002720605182702 C 64.2,23.021501192628087 64.8,23.039232464038435 65,22.5095289477132 C 65.2,21.979825431387965 65,21.33533014974029 65,21.354203023556533 C 65,21.373075897372775 64.8,21.912900879019432 65,22.60389331679442 C 65.2,23.294885754569407 65.8,24.309986098294935 66,24.809165212431473 C 66.2,25.30834432656801 65.8,25.092089121075993 66,25.09978888747711 C 66.2,25.107488653878228 66.8,25.02262119707842 67,24.84766404443706 C 67.2,24.672706891795702 67,24.46449743567444 67,24.225003124270323 C 67,23.985508812866208 66.8,23.920267259069877 67,23.65019248741649 C 67.2,23.380117715763102 67.8,23.256217058311563 68,22.874629266003392 C 68.2,22.49304147369522 68,22.114489866876447 68,21.742253525875636 C 68,21.370017184874825 67.8,20.76761369429335 68,21.013447560999346 C 68.2,21.259281427705343 68.8,22.890587456935773 69,22.971422859405624 C 69.2,23.052258261875476 69,21.697560875471574 69,21.417624573348597 C 69,21.13768827122562 68.8,21.988403155872493 69,21.571741348790738 C 69.2,21.155079541708982 69.8,19.405483725811425 70,19.33431553793982 C 70.2,19.263147350068213 70,20.914807966819588 70,21.215900409432706 C 70,21.516992852045824 69.8,20.95588148412017 70,20.83977775100541 C 70.2,20.72367401789065 70.8,20.42663791909145 71,20.635381743858908 C 71.2,20.844125568626364 71,21.877327345928215 71,21.883496874842688 C 71,21.88966640375716 70.8,20.77859254102311 71,20.666229388431276 C 71.2,20.553866235839443 71.8,20.86829360512196 72,21.32168111188352 C 72.2,21.775068618645083 72,22.448518849678614 72,22.93316692223909 C 72,23.417814994799564 71.8,24.01570064137281 72,23.74492147468589 C 72.2,23.474142307998967 72.8,22.24033368304124 73,21.57927108880449 C 73.2,20.91820849456774 73,20.882235768889277 73,20.439608503502143 C 73,19.99698123811501 72.8,19.58712048652951 73,19.366134761868814 C 73.2,19.145149037208117 73.8,19.257123558057344 74,19.334679880198664 C 74.2,19.412236202339983 73.8,19.548475917620472 74,19.753916372575418 C 74.2,19.959356827530364 74.8,20.5439075474341 75,20.361882154973387 C 75.2,20.179856762512674 75,19.142792957268277 75,18.843789410271864 C 75,18.54478586327545 74.8,19.04522210038081 75,18.86686441999132 C 75.2,18.68850673960183 75.8,17.936892949329135 76,17.952001008324427 C 76.2,17.96710906731972 76,18.790449703594124 76,18.942404714967772 C 76,19.09435972634142 75.8,18.71350061855065 76,18.71177606519266 C 76.2,18.710051511834667 76.8,18.771601064075863 77,18.933781948177813 C 77.2,19.095962832279763 77,19.120276605678903 77,19.522680485702416 C 77,19.92508436572593 76.8,20.43941418763077 77,20.945801348295383 C 77.2,21.452188508959996 77.8,21.850390308266253 78,22.05461628902548 C 78.2,22.258842269784704 78,21.994111184592658 78,21.966931252091516 C 78,21.939751319590375 77.8,21.70642653710071 78,21.918716626519767 C 78.2,22.131006715938824 78.8,22.91995344298924 79,23.0283816991868 C 79.2,23.136809955384358 79,22.497453268730645 79,22.46085790750756 C 79,22.424262546284474 78.8,22.82640167347415 79,22.845404893071375 C 79.2,22.8644081126686 79.8,22.761248238264333 80,22.555874005493685 C 80.2,22.350499772723037 80,21.725966256664012 80,21.81853372921814 C 80,21.911101201772265 79.8,22.893567126107495 80,23.01871136826432 C 80.2,23.143855610421145 80.8,22.872843065087896 81,22.444254940002267 C 81.2,22.01566681491664 81,21.21406983014646 81,20.875770742836185 C 81,20.53747165552591 80.8,20.52341322816754 81,20.752759503450896 C 81.2,20.98210577873425 81.8,21.743078756172586 82,22.022502119252962 C 82.2,22.30192548233334 82,22.178453708258733 82,22.149876318852783 C 82,22.121298929446834 81.8,21.625327307712773 82,21.879615172223218 C 82.2,22.133903036733663 82.8,22.818475733079897 83,23.42131564140501 C 83.2,24.02415554973012 82.8,24.679108593952364 83,24.893814713848784 C 83.2,25.108520833745203 83.8,24.573912775443684 84,24.494846240887107 C 84.2,24.41577970633053 84,24.619384516347395 84,24.4984820410659 C 84,24.3775795657844 83.8,23.95444514096709 84,23.890333864479622 C 84.2,23.826222587992156 84.8,24.17513821182476 85,24.17792565862857 C 85.2,24.180713105432382 85,23.73292795540227 85,23.90427109849868 C 85,24.075614241595087 84.8,25.048142312108162 85,25.034641374110613 C 85.2,25.021140436113065 85.8,23.961959128003496 86,23.836766408510933 C 86.2,23.71157368901837 86,24.193486883394193 86,24.408677776647792 C 86,24.62386866990139 85.8,24.592309924348704 86,24.91272087477893 C 86.2,25.233131825209156 86.8,25.600371881943357 87,26.010732528798926 C 87.2,26.421093175654494 87,26.628430740521697 87,26.96452410905677 C 87,27.300617477591846 86.8,27.683952009784413 87,27.691199371474298 C 87.2,27.698446733164182 87.8,27.331352108437258 88,27.000760917506188 C 88.2,26.670169726575118 88,26.408367875028308 88,26.03824341681895 C 88,25.668118958609593 87.8,25.443959758248113 88,25.150138626459402 C 88.2,24.85631749467069 88.8,24.640738782731344 89,24.569137757875392 C 89.2,24.49753673301944 89,24.328035728680344 89,24.792133502179652 C 89,25.25623127567896 88.8,26.344692894562332 89,26.88962662537193 C 89.2,27.434560356181525 89.8,27.294727481302026 90,27.51680215622764 C 90.2,27.738876831153256 90,28.364016313908838 90,28 C 90,27.635983686091162 89.8,25.845303620660086 90,25.696720586683448 C 90.2,25.54813755270681 90.8,27.07832465465551 91,27.257084830116806 C 91.2,27.435845005578102 90.8,26.826363702259552 91,26.59052146398993 C 91.2,26.354679225720307 91.8,26.068905331660815 92,26.077873638768697 C 92.2,26.08684194587658 92,26.75187827592832 92,26.63536299952934 C 92,26.518847723130364 91.8,26.013277588924026 92,25.49529725677381 C 92.2,24.977316924623594 92.8,24.37813705514522 93,24.045461338778264 C 93.2,23.712785622411307 93,23.90286525576277 93,23.831918674939025 C 93,23.76097209411528 92.8,23.873851570335464 93,23.690728434659547 C 93.2,23.50760529898363 93.8,23.113945094283032 94,22.91630299655945 C 94.2,22.718660898835864 94,22.62342717281722 94,22.70251794604163 C 94,22.781608719266043 93.8,23.27425964350337 94,23.31175686268151 C 94.2,23.349254081859648 94.8,22.777197281715775 95,22.89000404193232 C 95.2,23.00281080214886 95,23.72369302294802 95,23.875790663764228 C 95,24.027888304580436 94.8,23.623926666039726 95,23.65049224601336 C 95.2,23.677057825986996 95.8,23.973811836586663 96,24.0086185636324 C 96.2,24.043425290678137 96,24.03802006774552 96,23.82452588124204 C 96,23.611031694738557 95.8,23.23295695347139 96,22.941147631114994 C 96.2,22.649338308758598 96.8,22.681648453014905 97,22.365479269460053 C 97.2,22.0493100859052 97,21.630247757288164 97,21.36030171334073 C 97,21.090355669393293 96.8,21.018148677840937 97,21.015749049722874 C 97.2,21.01334942160481 97.8,21.166658995813894 98,21.34830357275041 C 98.2,21.529948149686927 98,21.80062135367021 98,21.923971934405465 C 98,22.04732251514072 97.8,22.015230518895134 98,21.965056476426682 C 98.2,21.91488243395823 98.8,21.89192841549568 99,21.6731017220632 C 99.2,21.454275028630722 99,21.03135875182406 99,20.870923009264278" stroke-width="1.7" class="SparkLine__Path-sc-9wg5ja-1 hqeurd"></path></svg>